<?xml version="1.0" encoding="utf-8"?>
<!-- Generator: Adobe Illustrator 16.0.0, SVG Export Plug-In . SVG Version: 6.00 Build 0)  -->
<!DOCTYPE svg PUBLIC "-//W3C//DTD SVG 1.1//EN" "http://www.w3.org/Graphics/SVG/1.1/DTD/svg11.dtd">
<svg version="1.1" id="Layer_1" xmlns="http://www.w3.org/2000/svg" xmlns:xlink="http://www.w3.org/1999/xlink" x="0px" y="0px"
	 width="5242.396px" height="3884.955px" viewBox="0 0 5242.396 3884.955" enable-background="new 0 0 5242.396 3884.955"
	 xml:space="preserve">
<g id="Ribbon">
	<g id="Florid_Vector_Pack_03">
	</g>
	<g id="Florid_Vector_Pack_05">
		<g id="Florid_Vector_Pack_08">
		</g>
		<g id="Florid_Vector_Pack_09">
		</g>
	</g>
</g>
<g>
	<defs>
		<rect id="SVGID_1_" y="-3.455" width="5242.396" height="3886.871"/>
	</defs>
	<clipPath id="SVGID_2_">
		<use xlink:href="#SVGID_1_"  overflow="visible"/>
	</clipPath>
	<polygon clip-path="url(#SVGID_2_)" fill="#FFFFFF" points="0,3883.416 596.12,3883.416 0,3287.296 	"/>
	<polygon clip-path="url(#SVGID_2_)" fill="#BE1E2D" points="0,3606.062 277.354,3883.416 392.675,3883.416 0,3490.74 	"/>
	<polygon clip-path="url(#SVGID_2_)" fill="#BE1E2D" points="0,3863.059 20.357,3883.416 135.681,3883.416 0,3747.734 	"/>
	<polygon clip-path="url(#SVGID_2_)" fill="#BE1E2D" points="0,3287.295 596.121,3883.416 1056.559,3883.416 0,2826.857 	"/>
	<polygon clip-path="url(#SVGID_2_)" fill="#FFFFFF" points="0,2826.855 1056.56,3883.416 2083.689,3883.416 0,1799.725 	"/>
	<polygon clip-path="url(#SVGID_2_)" fill="#BE1E2D" points="0,2596.638 1286.778,3883.416 1402.102,3883.416 0,2481.313 	"/>
	<polygon clip-path="url(#SVGID_2_)" fill="#BE1E2D" points="0,2118.493 1764.923,3883.416 1880.246,3883.416 0,2003.17 	"/>
	<polygon clip-path="url(#SVGID_2_)" fill="#BE1E2D" points="0,2375.487 1507.929,3883.416 1623.249,3883.416 0,2260.166 	"/>
	<polygon clip-path="url(#SVGID_2_)" fill="#BE1E2D" points="0,1799.725 2083.689,3883.416 2544.128,3883.416 0,1339.288 	"/>
	<polygon clip-path="url(#SVGID_2_)" fill="#FFFFFF" points="0,292.433 0,1319.563 2563.853,3883.416 3590.984,3883.416 	"/>
	<polygon clip-path="url(#SVGID_2_)" fill="#BE1E2D" points="0,1089.344 2794.072,3883.416 2909.393,3883.416 0,974.022 	"/>
	<polygon clip-path="url(#SVGID_2_)" fill="#BE1E2D" points="0,611.198 3272.219,3883.416 3387.542,3883.416 0,495.876 	"/>
	<polygon clip-path="url(#SVGID_2_)" fill="#BE1E2D" points="0,868.195 3015.223,3883.416 3130.547,3883.416 0,752.871 	"/>
	<polygon clip-path="url(#SVGID_2_)" fill="#BE1E2D" points="164.553,-3.455 0,-3.455 0,292.431 3590.987,3883.416 
		4051.423,3883.416 	"/>
	<polygon clip-path="url(#SVGID_2_)" fill="#FFFFFF" points="1193.615,-3.455 166.484,-3.455 4053.354,3883.416 5080.488,3883.416 	
		"/>
	<polygon clip-path="url(#SVGID_2_)" fill="#BE1E2D" points="512.025,-3.455 396.702,-3.455 4283.574,3883.416 4398.896,3883.416 	
		"/>
	<polygon clip-path="url(#SVGID_2_)" fill="#BE1E2D" points="990.169,-3.455 874.848,-3.455 4761.719,3883.416 4877.041,3883.416 	
		"/>
	<polygon clip-path="url(#SVGID_2_)" fill="#BE1E2D" points="733.175,-3.455 617.851,-3.455 4504.723,3883.416 4620.047,3883.416 	
		"/>
	<polygon clip-path="url(#SVGID_2_)" fill="#BE1E2D" points="5242.396,3584.889 1654.053,-3.455 1193.615,-3.455 5080.488,3883.416 
		5242.396,3883.416 	"/>
	<polygon clip-path="url(#SVGID_2_)" fill="#FFFFFF" points="2700.907,-3.455 1673.777,-3.455 5242.396,3565.162 5242.396,2538.032 
			"/>
	<polygon clip-path="url(#SVGID_2_)" fill="#BE1E2D" points="2019.32,-3.455 1903.996,-3.455 5242.396,3334.943 5242.396,3219.619 	
		"/>
	<polygon clip-path="url(#SVGID_2_)" fill="#BE1E2D" points="2497.466,-3.455 2382.144,-3.455 5242.396,2856.797 5242.396,2741.476 
			"/>
	<polygon clip-path="url(#SVGID_2_)" fill="#BE1E2D" points="2240.47,-3.455 2125.147,-3.455 5242.396,3113.794 5242.396,2998.471 	
		"/>
	<polygon clip-path="url(#SVGID_2_)" fill="#BE1E2D" points="3161.35,-3.455 2700.91,-3.455 5242.396,2538.03 5242.396,2077.592 	
		"/>
	<polygon clip-path="url(#SVGID_2_)" fill="#FFFFFF" points="4188.48,-3.455 3161.352,-3.455 5242.396,2077.59 5242.396,1050.46 	
		"/>
	<polygon clip-path="url(#SVGID_2_)" fill="#BE1E2D" points="3506.893,-3.455 3391.568,-3.455 5242.396,1847.371 5242.396,1732.048 
			"/>
	<polygon clip-path="url(#SVGID_2_)" fill="#BE1E2D" points="3985.037,-3.455 3869.713,-3.455 5242.396,1369.228 5242.396,1253.903 
			"/>
	<polygon clip-path="url(#SVGID_2_)" fill="#BE1E2D" points="3728.041,-3.455 3612.719,-3.455 5242.396,1626.222 5242.396,1510.899 
			"/>
	<polygon clip-path="url(#SVGID_2_)" fill="#BE1E2D" points="4648.918,-3.455 4188.48,-3.455 5242.396,1050.46 5242.396,590.022 	
		"/>
	<polygon clip-path="url(#SVGID_2_)" fill="#FFFFFF" points="4668.644,-3.455 5242.396,570.297 5242.396,-3.455 	"/>
	<polygon clip-path="url(#SVGID_2_)" fill="#BE1E2D" points="5014.185,-3.455 4898.863,-3.455 5242.396,340.077 5242.396,224.756 	
		"/>
	<polygon clip-path="url(#SVGID_2_)" fill="#BE1E2D" points="5235.338,-3.455 5120.015,-3.455 5242.396,118.926 5242.396,3.603 	"/>
	<rect y="-3.455" clip-path="url(#SVGID_2_)" fill="none" width="5242.396" height="3886.871"/>
</g>
</svg>
